# xmcd
#
# Track frame offsets: 
#        150
#        13235
#        26291
#        39937
#        50316
#        61568
#        73012
#        87903
#        106139
#        122041
#        140892
#        172103
#        191484
#        212894
#        227861
#        242017
#        257971
#
# Disc length: 3738 seconds
#
# Revision: 0
# Processed by: cddbd v1.5.2PL0 Copyright (c) Steve Scherf et al.
# Submitted via: ExactAudioCopy v0.95b4
#
DISCID=ed0e9811
DTITLE=Various Artist - This Is... Soul! CD4
DYEAR=2007
DGENRE=Soul
TTITLE0=The Contours - Do You Love Me
TTITLE1=Fontella Bass - Rescue Me
TTITLE2=Marlena Shaw - Mercy Mercy Mercy
TTITLE3=Clyde McPhatter: Little Bitty Pretty One
TTITLE4=The Marvelettes - Please Mr. Postman
TTITLE5=Stevie Wonder - I Was Made To Love Her
TTITLE6=Bobby Womack - I Wanna Make Love To You
TTITLE7=Smokey Robinson - Being With You
TTITLE8=High Inergy - You Can't Turn Me Off
TTITLE9=Jr. Walker and The All Stars - Walk In The Night
TTITLE10=The Temptations - Papa Was A Rollin' Stone
TTITLE11=Jeffrey Osborne - You Should Be Mine (The Woo Woo Song)
TTITLE12=Will Downing - A Love Supreme
TTITLE13=Edwin Starr - Twenty-Five Miles
TTITLE14=The Spinners - It´s A Shame
TTITLE15=James Brown - Night Train
TTITLE16=Donna Summer - Last Dance
EXTD=
EXTT0=
EXTT1=
EXTT2=
EXTT3=
EXTT4=
EXTT5=
EXTT6=
EXTT7=
EXTT8=
EXTT9=
EXTT10=
EXTT11=
EXTT12=
EXTT13=
EXTT14=
EXTT15=
EXTT16=
PLAYORDER=
